# xmcd
#
# Track frame offsets:
#	150
#	13378
#	44477
#	59536
#
# Disc length: 1160 seconds
#
# Revision: 1
# Processed by: cddbd v1.4PL0 Copyright (c) Steve Scherf et al.
# Submitted via: audiograbber 1.80
#
DISCID=36048604
DTITLE=Dino Lenny Vs. The Housemartins - n/a
DYEAR=1900
DGENRE=
TTITLE0=Change The World
TTITLE1=Change The World (West London Deep Mix)
TTITLE2=Change The World (Stella Mix)
TTITLE3=Change The World (Dino Lenny Mix)
EXTD=
EXTT0=
EXTT1=
EXTT2=
EXTT3=
PLAYORDER=
